<?xml version="1.0" encoding="UTF-8"?>
<svg width="22px" height="22px" viewBox="0 0 22 22" version="1.1" xmlns="http://www.w3.org/2000/svg" xmlns:xlink="http://www.w3.org/1999/xlink">
    <title>Group 8</title>
    <defs>
        <path d="M5.28333321,2.10000024 C5.33888901,2.06296273 5.39907413,2.05833339 5.46388907,2.08611129 C5.52870353,2.11388871 5.56111123,2.1648147 5.56111123,2.23888877 L5.56111123,3.79444433 C5.56111123,3.90555544 5.50555544,3.96111123 5.39444433,3.96111123 L3.83888877,3.96111123 C3.7648147,3.96111123 3.71388871,3.92407419 3.68611129,3.85000012 C3.65833339,3.77592604 3.67222232,3.72037025 3.72777766,3.68333321 L5.28333321,2.10000024 Z M11.7333333,1.6 C11.7333333,1.6 11.7333333,1.6 11.7333333,1.6 C12.518805,1.6 13.1555556,2.23675058 13.1555556,3.02222222 C13.1555556,3.02222222 13.1555556,3.02222222 13.1555556,3.02222222 L13.1555556,12.9777778 C13.1555556,12.9777778 13.1555556,12.9777778 13.1555556,12.9777778 C13.1555556,13.7632494 12.518805,14.4 11.7333333,14.4 C11.7333333,14.4 11.7333333,14.4 11.7333333,14.4 L4.62222222,14.4 C4.62222222,14.4 4.62222222,14.4 4.62222222,14.4 C3.83675058,14.4 3.2,13.7632494 3.2,12.9777778 C3.2,12.9777778 3.2,12.9777778 3.2,12.9777778 L3.2,4.93333333 C3.2,4.84074098 3.25555532,4.79444433 3.3666669,4.79444433 L5.97777778,4.79444433 C6.08888889,4.79444433 6.18611105,4.75277796 6.26944427,4.66944427 C6.35277796,4.58611105 6.39444433,4.48888889 6.39444433,4.37777778 L6.39444433,1.76666643 C6.39444433,1.65555579 6.45000012,1.6 6.56111123,1.6 L11.7333333,1.6 Z M7.77526214,11.9111111 C7.88259967,11.9111111 7.97651996,11.8755554 8.05702299,11.8044444 C8.13752649,11.7333334 8.17777778,11.6464198 8.17777778,11.5437039 C8.17777778,11.4409875 8.13752649,11.3580246 8.05702299,11.2948148 C7.97651996,11.2316049 7.88259967,11.2 7.77526214,11.2 L5.73584897,11.2 C5.61062162,11.2 5.51222922,11.2316049 5.44067087,11.2948148 C5.36911251,11.3580246 5.33333333,11.4409875 5.33333333,11.5437039 C5.33333333,11.6464198 5.36911251,11.7333334 5.44067087,11.8044444 C5.51222922,11.8755554 5.61062162,11.9111111 5.73584897,11.9111111 L7.77526214,11.9111111 Z M10.6343431,10.1333333 C10.7377779,10.1333333 10.8282829,10.0977776 10.9058585,10.0266666 C10.9834342,9.95555566 11.0222222,9.87259236 11.0222222,9.77777798 C11.0222222,9.68296279 10.9834342,9.5999999 10.9058585,9.52888891 C10.8282829,9.45777792 10.7377779,9.42222222 10.6343431,9.42222222 L5.72121201,9.42222222 C5.60053839,9.42222222 5.50572391,9.45777792 5.43676768,9.52888891 C5.36781145,9.5999999 5.33333333,9.68296279 5.33333333,9.77777798 C5.33333333,9.87259236 5.36781145,9.95555566 5.43676768,10.0266666 C5.50572391,10.0977776 5.60053839,10.1333333 5.72121201,10.1333333 L10.6343431,10.1333333 Z M10.6343431,8.35555556 C10.7377779,8.35555556 10.8282829,8.31999986 10.9058585,8.24888887 C10.9834342,8.17777788 11.0222222,8.09086422 11.0222222,7.9881483 C11.0222222,7.88543198 10.9834342,7.80246909 10.9058585,7.73925923 C10.8282829,7.67604937 10.7377779,7.64444444 10.6343431,7.64444444 L5.72121201,7.64444444 C5.60053839,7.64444444 5.50572391,7.67604937 5.43676768,7.73925923 C5.36781145,7.80246909 5.33333333,7.88543198 5.33333333,7.9881483 C5.33333333,8.09086422 5.36781145,8.17777788 5.43676768,8.24888887 C5.50572391,8.31999986 5.60053839,8.35555556 5.72121201,8.35555556 L10.6343431,8.35555556 Z M10.6343431,6.57777778 C10.7377779,6.57777778 10.8282829,6.54222246 10.9058585,6.47111103 C10.9834342,6.4 11.0222222,6.31308629 11.0222222,6.21037032 C11.0222222,6.10765434 10.9834342,6.0246914 10.9058585,5.96148151 C10.8282829,5.89827161 10.7377779,5.86666667 10.6343431,5.86666667 L5.72121201,5.86666667 C5.60053839,5.86666667 5.50572391,5.89827161 5.43676768,5.96148151 C5.36781145,6.0246914 5.33333333,6.10765434 5.33333333,6.21037032 C5.33333333,6.31308629 5.36781145,6.4 5.43676768,6.47111103 C5.50572391,6.54222246 5.60053839,6.57777778 5.72121201,6.57777778 L10.6343431,6.57777778 Z" id="path-1"></path>
    </defs>
    <g id="Dating_App-iPhoneX-Dark-Mode" stroke="none" stroke-width="1" fill="none" fill-rule="evenodd">
        <g id="Profile" transform="translate(-33.000000, -647.000000)">
            <g id="Panel-#2" transform="translate(17.000000, 480.000000)">
                <g id="Blacklist" transform="translate(0.000000, 167.000000)">
                    <g id="Group-8" transform="translate(16.000000, 0.000000)">
                        <rect id="Rectangle-2" fill="#4A4A4A" x="0" y="0" width="22" height="22" rx="8"></rect>
                        <g id="icons/blacklist" transform="translate(3.000000, 3.000000)">
                            <rect id="Rectangle" fill-opacity="0" fill="#FF0000" fill-rule="evenodd" x="0" y="0" width="16" height="16"></rect>
                            <mask id="mask-2" fill="white">
                                <use xlink:href="#path-1"></use>
                            </mask>
                            <use id="Blacklist" fill="#000000" fill-rule="nonzero" xlink:href="#path-1"></use>
                            <g id="color/White" mask="url(#mask-2)" fill="#FFFFFF" fill-rule="evenodd">
                                <rect x="0" y="0" width="16" height="16"></rect>
                                <rect x="0" y="0" width="16" height="16"></rect>
                            </g>
                        </g>
                    </g>
                </g>
            </g>
        </g>
    </g>
</svg>