<?xml version="1.0" encoding="UTF-8"?>
<svg width="20px" height="18px" viewBox="0 0 20 18" version="1.1" xmlns="http://www.w3.org/2000/svg" xmlns:xlink="http://www.w3.org/1999/xlink">
    <title>icons/edit</title>
    <defs>
        <path d="M4.8,14.602 L4.8,17.602 L7.8,17.602 L16.648,8.754 L13.648,5.754 L4.8,14.602 Z M20.8,19.2 C21.2418278,19.2 21.6,19.5581722 21.6,20 C21.6,20.4418278 21.2418278,20.8 20.8,20.8 L3.2,20.8 C2.7581722,20.8 2.4,20.4418278 2.4,20 C2.4,19.5581722 2.7581722,19.2 3.2,19.2 L20.8,19.2 Z M15.968,3.434 C16.28,3.122 16.784,3.122 17.096,3.434 L17.096,3.434 L18.968,5.306 C19.28,5.618 19.28,6.122 18.968,6.434 L18.968,6.434 L17.504,7.898 L14.504,4.898 Z" id="path-1"></path>
        <linearGradient x1="74.8125%" y1="26.4781672%" x2="0%" y2="77.2418478%" id="linearGradient-3">
            <stop stop-color="#FF8960" offset="0%"></stop>
            <stop stop-color="#FF62A5" offset="100%"></stop>
        </linearGradient>
    </defs>
    <g id="Dating_App-iPhoneX-Dark-Mode" stroke="none" stroke-width="1" fill="none" fill-rule="evenodd">
        <g id="Profile" transform="translate(-322.000000, -136.000000)">
            <g id="Account-Infor" transform="translate(18.000000, 86.000000)">
                <g id="icons/edit" transform="translate(302.000000, 47.000000)">
                    <rect id="Rectangle" fill-opacity="0" fill="#FF0000" fill-rule="evenodd" x="0" y="0" width="24" height="24"></rect>
                    <mask id="mask-2" fill="white">
                        <use xlink:href="#path-1"></use>
                    </mask>
                    <use id="Shape" fill="#000000" fill-rule="nonzero" xlink:href="#path-1"></use>
                    <g id="color/primary" mask="url(#mask-2)" fill="url(#linearGradient-3)" fill-rule="evenodd">
                        <rect x="0" y="0" width="24" height="24"></rect>
                    </g>
                </g>
            </g>
        </g>
    </g>
</svg>