<?xml version="1.0" encoding="UTF-8"?>
<svg width="22px" height="22px" viewBox="0 0 22 22" version="1.1" xmlns="http://www.w3.org/2000/svg" xmlns:xlink="http://www.w3.org/1999/xlink">
    <title>Group 7</title>
    <defs>
        <path d="M6.68444444,11.1199433 C6.68444444,9.51552981 7.63061333,8.13189883 9.00341333,7.46501771 C9.19246222,7.20660694 9.36625778,6.88790033 9.39861333,6.60818201 C9.56224,6.5959415 9.81923556,6.44860203 9.89504,5.86695112 C9.93571556,5.55459144 9.77393778,5.37914413 9.67594667,5.32383516 C9.67594667,5.32383516 9.92,4.86912288 9.92,4.32011334 C9.92,3.21937414 9.47950222,2.28002833 8.53333333,2.28002833 C8.53333333,2.28002833 8.20469333,1.6 7.14666667,1.6 C5.18592,1.6 4.37333333,2.8335714 4.37333333,4.32011334 C4.37333333,4.82061419 4.61738667,5.32383516 4.61738667,5.32383516 C4.51939556,5.37914413 4.35761778,5.55504479 4.39829333,5.86695112 C4.47409778,6.44860203 4.73109333,6.5959415 4.89472,6.60818201 C4.95712,7.15084462 5.552,7.84538022 5.76,7.94647777 L5.76,8.85318222 C5.29777778,10.2132389 1.6,9.30653444 1.6,12.48 L6.92618667,12.48 C6.77226667,12.0538489 6.68444444,11.5977766 6.68444444,11.1199433 Z M10.962963,7.99977142 C9.19564868,7.99977142 7.76296296,9.4325083 7.76296296,11.1998857 C7.76296296,12.9672631 9.19564868,14.4 10.962963,14.4 C12.7302772,14.4 14.162963,12.9672631 14.162963,11.1998857 C14.162963,9.4325083 12.7302772,7.99977142 10.962963,7.99977142 Z M12.5451852,11.771249 L11.5851852,11.771249 L11.5851852,12.731249 C11.5851852,12.996689 11.3701452,13.211249 11.1051852,13.211249 C10.8402252,13.211249 10.6251852,12.996689 10.6251852,12.731249 L10.6251852,11.771249 L9.66518519,11.771249 C9.40022519,11.771249 9.18518519,11.556689 9.18518519,11.291249 C9.18518519,11.025809 9.40022519,10.811249 9.66518519,10.811249 L10.6251852,10.811249 L10.6251852,9.85124897 C10.6251852,9.58580897 10.8402252,9.37124897 11.1051852,9.37124897 C11.3701452,9.37124897 11.5851852,9.58580897 11.5851852,9.85124897 L11.5851852,10.811249 L12.5451852,10.811249 C12.8101452,10.811249 13.0251852,11.025809 13.0251852,11.291249 C13.0251852,11.556689 12.8101452,11.771249 12.5451852,11.771249 Z" id="path-1"></path>
    </defs>
    <g id="Dating_App-iPhoneX-Dark-Mode" stroke="none" stroke-width="1" fill="none" fill-rule="evenodd">
        <g id="Profile" transform="translate(-33.000000, -596.000000)">
            <g id="Panel-#2" transform="translate(17.000000, 480.000000)">
                <g id="Friends" transform="translate(0.000000, 116.000000)">
                    <g id="Group-7" transform="translate(16.000000, 0.000000)">
                        <rect id="Rectangle-2" fill-opacity="0.839928668" fill="#7ED321" x="0" y="0" width="22" height="22" rx="8"></rect>
                        <g id="icons/friends" transform="translate(3.000000, 3.000000)">
                            <rect id="Rectangle" fill-opacity="0" fill="#FF0000" fill-rule="evenodd" x="0" y="0" width="16" height="16"></rect>
                            <mask id="mask-2" fill="white">
                                <use xlink:href="#path-1"></use>
                            </mask>
                            <use id="Friends" fill="#000000" fill-rule="nonzero" xlink:href="#path-1"></use>
                            <g id="color/White" mask="url(#mask-2)" fill="#FFFFFF" fill-rule="evenodd">
                                <rect x="0" y="0" width="16" height="16"></rect>
                                <rect x="0" y="0" width="16" height="16"></rect>
                            </g>
                        </g>
                    </g>
                </g>
            </g>
        </g>
    </g>
</svg>