<?xml version="1.0" encoding="UTF-8"?>
<svg width="22px" height="22px" viewBox="0 0 22 22" version="1.1" xmlns="http://www.w3.org/2000/svg" xmlns:xlink="http://www.w3.org/1999/xlink">
    <title>Group 4</title>
    <defs>
        <path d="M5.62858667,2.66666667 C6.21013333,2.66666667 6.65728,2.81301333 6.83178667,3.10186667 C7.48416,3.16629333 7.78837333,3.6544 7.90485333,4.23381333 C7.5712,5.09610667 7.57930667,6.19776 7.57930667,6.73066667 C7.57930667,6.82794667 7.55285333,7.25973333 7.51872,7.38048 C7.46069333,7.8912 6.912,8.54485333 6.72,8.64 L6.72,8.64 L6.72,9.49333333 C6.92352,10.1038933 7.61216,10.13248 8.27690667,10.36544 C7.56906667,10.74048 6.72,11.3928533 6.72,12.9066667 L6.72,12.9066667 L1.6,12.9066667 C1.6,9.49333333 4.16,10.7733333 4.58666667,9.49333333 L4.58666667,9.49333333 L4.58666667,8.64 C4.39466667,8.54485333 3.84554667,7.8912 3.78794667,7.38005333 C3.63690667,7.36853333 3.39968,7.22986667 3.32970667,6.68245333 C3.29216,6.38890667 3.44149333,6.22336 3.53194667,6.17130667 C3.06517333,4.31914667 3.30282667,2.70677333 5.62858667,2.66666667 Z M11.0395733,3.09333333 C14.4,3.09333333 12.8836267,8.16768 13.7527467,8.88106667 C13.7527467,8.88106667 13.39264,9.49546667 11.84,9.49546667 L11.84,10.0450133 C12.2666667,11.2 14.4,10.7733333 14.4,12.9066667 L7.57333333,12.9066667 C7.57333333,10.7733333 9.70666667,11.2 10.1333333,10.0450133 L10.1333333,9.50101333 C8.58837333,9.50101333 8.15957333,8.86485333 8.15957333,8.86485333 C8.96682667,8.19328 7.44021333,3.52 10.1888,3.52 C10.1888,3.52 10.56,3.09333333 11.0395733,3.09333333 Z" id="path-1"></path>
    </defs>
    <g id="Dating_App-iPhoneX-Dark-Mode" stroke="none" stroke-width="1" fill="none" fill-rule="evenodd">
        <g id="Profile" transform="translate(-33.000000, -429.000000)">
            <g id="Panel-#1" transform="translate(19.000000, 313.000000)">
                <g id="Groups" transform="translate(14.000000, 116.000000)">
                    <g id="Group-4">
                        <rect id="Rectangle-2" fill-opacity="0.922044837" fill="#9013FE" x="0" y="0" width="22" height="22" rx="8"></rect>
                        <g id="icons/Group" transform="translate(3.000000, 3.000000)">
                            <rect id="Rectangle" fill-opacity="0" fill="#FF0000" fill-rule="evenodd" x="0" y="0" width="16" height="16"></rect>
                            <mask id="mask-2" fill="white">
                                <use xlink:href="#path-1"></use>
                            </mask>
                            <use id="Groups" fill="#000000" fill-rule="nonzero" xlink:href="#path-1"></use>
                            <g id="color/White" mask="url(#mask-2)" fill="#FFFFFF" fill-rule="evenodd">
                                <rect x="0" y="0" width="16" height="16"></rect>
                                <rect x="0" y="0" width="16" height="16"></rect>
                            </g>
                        </g>
                    </g>
                </g>
            </g>
        </g>
    </g>
</svg>