<?xml version="1.0" encoding="UTF-8"?>
<svg width="342px" height="40px" viewBox="0 0 342 40" version="1.1" xmlns="http://www.w3.org/2000/svg" xmlns:xlink="http://www.w3.org/1999/xlink">
    <title>Group</title>
    <defs>
        <path d="M19.2003048,8.34285714 C20.8862476,8.34285714 22.251581,9.94571429 22.2802286,11.7440571 L22.2802286,11.7440571 C22.2857143,11.7547429 22.2838857,11.7641714 22.2838857,11.7761143 C22.2838857,11.7842857 22.2857143,11.7924571 22.2857143,11.8012571 C22.2857143,11.8540571 22.2735238,11.8942857 22.2704762,11.9452 C22.112,16.5230857 16.7567238,18.4 16.7567238,18.4 C16.7567238,18.4 11.4788571,16.5212 11.3283048,11.9382857 C11.3258667,11.8898857 11.3142857,11.8515429 11.3142857,11.8012571 C11.3142857,11.7924571 11.3161143,11.7842857 11.3161143,11.7761143 L11.3161143,11.7761143 L11.3142857,11.7440571 C11.348419,9.94571429 12.7137524,8.34285714 14.3996952,8.34285714 C15.3749333,8.34285714 16.2343619,8.88782857 16.8,9.688 C17.3656381,8.88782857 18.2250667,8.34285714 19.2003048,8.34285714 Z M12.2575238,5.6 C13.4860589,5.6 14.5784006,6.2808857 15.2829318,7.29414103 C14.8442829,7.08764319 14.365468,6.97142857 13.8619567,6.97142857 C11.7545281,6.97142857 10.0478615,8.975 10.0120519,11.2229286 L10.0051948,11.2229286 C10.0051948,11.2370714 10.0074805,11.2496429 10.0074805,11.263 C10.0074805,11.2732143 10.0051948,11.2834286 10.0051948,11.2944286 C10.0051948,11.3572857 10.019671,11.4052143 10.0227186,11.4657143 C10.0931018,13.6082256 11.0599693,15.2779365 12.2429063,16.528816 C10.6648142,17.6591094 9.20304762,18.1714286 9.20304762,18.1714286 C9.20304762,18.1714286 2.60571429,15.8229286 2.41752381,10.0942857 C2.41447619,10.0337857 2.4,9.98585714 2.4,9.923 C2.4,9.912 2.40228571,9.90178571 2.40228571,9.89157143 L2.40228571,9.89157143 L2.4,9.8515 C2.44266667,7.60357143 4.14933333,5.6 6.2567619,5.6 C7.47580952,5.6 8.55009524,6.28121429 9.25714286,7.28142857 C9.96419048,6.28121429 11.0384762,5.6 12.2575238,5.6 Z" id="path-1"></path>
    </defs>
    <g id="Dating_App-iPhoneX-Dark-Mode" stroke="none" stroke-width="1" fill="none" fill-rule="evenodd">
        <g id="Favorites-/-Dropdown-Menu" transform="translate(-17.000000, -150.000000)">
            <g id="NavBar">
                <g id="Dropdown-Menu" transform="translate(17.000000, 109.000000)">
                    <g id="Group" transform="translate(0.000000, 41.000000)">
                        <rect id="Rectangle-5" fill="#E6E6E6" x="0" y="0" width="342" height="40" rx="8"></rect>
                        <text id="Matches" font-family="Roboto-Regular, Roboto" font-size="17" font-weight="normal" line-spacing="22" letter-spacing="-0.41" fill="#262628">
                            <tspan x="54" y="24">Matches</tspan>
                        </text>
                        <g id="icons/Matched" transform="translate(16.000000, 8.000000)">
                            <rect id="Rectangle" fill-opacity="0" fill="#FF0000" fill-rule="evenodd" x="0" y="0" width="24" height="24"></rect>
                            <mask id="mask-2" fill="white">
                                <use xlink:href="#path-1"></use>
                            </mask>
                            <use id="Shape" fill="#9B9B9B" fill-rule="nonzero" xlink:href="#path-1"></use>
                            <g id="color/Title-text-light-gray-2" mask="url(#mask-2)" fill-rule="evenodd">
                                <rect id="color/Title-text-light-gray" fill="#DAD9E2" x="0" y="0" width="24" height="24"></rect>
                                <rect id="color/Title-text-light-gray" fill="#C1C0C9" x="0" y="0" width="24" height="24"></rect>
                            </g>
                        </g>
                    </g>
                </g>
            </g>
        </g>
    </g>
</svg>