<?xml version="1.0" encoding="UTF-8"?>
<svg width="22px" height="22px" viewBox="0 0 22 22" version="1.1" xmlns="http://www.w3.org/2000/svg" xmlns:xlink="http://www.w3.org/1999/xlink">
    <title>Group 9</title>
    <defs>
        <path d="M13.888,6.8736 L13.05856,6.72 C12.7627894,6.64790397 12.5189329,6.439447 12.4017007,6.15849382 C12.2844684,5.87754064 12.3078344,5.55758079 12.46464,5.29664 L12.9408,4.672 C13.1284334,4.40855617 13.0958188,4.04762152 12.864,3.82208 L12.1728,3.136 C11.9479795,2.90702569 11.5904254,2.87452077 11.328,3.0592 L10.6624,3.53536 C10.4010168,3.68814741 10.0840165,3.71267719 9.80224,3.60192 C9.54151023,3.466825 9.35132514,3.2262968 9.28,2.94144 L9.1264,2.112 C9.06013191,1.81624013 8.79969948,1.60450645 8.49664,1.6 L7.50848,1.6 C7.20349798,1.60214606 6.94030892,1.81439529 6.8736,2.112 L6.72,2.94144 C6.64594725,3.23100786 6.44091617,3.46938116 6.16567889,3.58590497 C5.89044161,3.70242878 5.57657851,3.68373332 5.31712,3.53536 L4.672,3.0592 C4.40957458,2.87452077 4.05202055,2.90702569 3.8272,3.136 L3.136,3.82208 C2.90418115,4.04762152 2.87156658,4.40855617 3.0592,4.672 L3.53536,5.3376 C3.67557177,5.59542281 3.68979213,5.90330959 3.57394272,6.17295909 C3.4580933,6.4426086 3.22497293,6.64423047 2.94144,6.72 L2.112,6.8736 C1.81624013,6.93986809 1.60450645,7.20030052 1.6,7.50336 L1.6,8.49152 C1.60214606,8.79650202 1.81439529,9.05969108 2.112,9.1264 L2.94144,9.28 C3.23721061,9.35209603 3.48106706,9.560553 3.59829933,9.84150618 C3.71553159,10.1224594 3.69216561,10.4424192 3.53536,10.70336 L3.0592,11.328 C2.87156658,11.5914438 2.90418115,11.9523785 3.136,12.17792 L3.8272,12.864 C4.05202055,13.0929743 4.40957458,13.1254792 4.672,12.9408 L5.3376,12.46464 C5.59542281,12.3244282 5.90330959,12.3102079 6.17295909,12.4260573 C6.4426086,12.5419067 6.64423047,12.7750271 6.72,13.05856 L6.8736,13.888 C6.93986809,14.1837599 7.20030052,14.3954935 7.50336,14.4 L8.49152,14.4 C8.79457948,14.3954935 9.05501191,14.1837599 9.12128,13.888 L9.28,13.05856 C9.35209603,12.7627894 9.560553,12.5189329 9.84150618,12.4017007 C10.1224594,12.2844684 10.4424192,12.3078344 10.70336,12.46464 L11.36896,12.9408 C11.622729,13.1029201 11.9543201,13.0712395 12.1728,12.864 L12.864,12.17792 C13.0958188,11.9523785 13.1284334,11.5914438 12.9408,11.328 L12.46464,10.6624 C12.3244282,10.4045772 12.3102079,10.0966904 12.4260573,9.82704091 C12.5419067,9.5573914 12.7750271,9.35576953 13.05856,9.28 L13.888,9.1264 C14.1837599,9.06013191 14.3954935,8.79969948 14.4,8.49664 L14.4,7.50848 C14.3978539,7.20349798 14.1856047,6.94030892 13.888,6.8736 Z M10.304,8 C10.304,9.27246406 9.27246406,10.304 8,10.304 C6.72753594,10.304 5.696,9.27246406 5.696,8 C5.696,6.72753594 6.72753594,5.696 8,5.696 C9.27246406,5.696 10.304,6.72753594 10.304,8 Z" id="path-1"></path>
    </defs>
    <g id="Dating_App-iPhoneX-Dark-Mode" stroke="none" stroke-width="1" fill="none" fill-rule="evenodd">
        <g id="Profile" transform="translate(-33.000000, -698.000000)">
            <g id="Panel-#2" transform="translate(17.000000, 480.000000)">
                <g id="Settings" transform="translate(0.000000, 218.000000)">
                    <g id="Group-9" transform="translate(16.000000, 0.000000)">
                        <rect id="Rectangle-2" fill="#DAD9E2" x="0" y="0" width="22" height="22" rx="8"></rect>
                        <g id="icons/settings" transform="translate(3.000000, 3.000000)">
                            <rect id="Rectangle" fill-opacity="0" fill="#FF0000" fill-rule="evenodd" x="0" y="0" width="16" height="16"></rect>
                            <mask id="mask-2" fill="white">
                                <use xlink:href="#path-1"></use>
                            </mask>
                            <use id="Settings" fill="#0E1D25" fill-rule="nonzero" xlink:href="#path-1"></use>
                            <g id="color/White" mask="url(#mask-2)" fill="#FFFFFF" fill-rule="evenodd">
                                <rect x="0" y="0" width="16" height="16"></rect>
                                <rect x="0" y="0" width="16" height="16"></rect>
                            </g>
                        </g>
                    </g>
                </g>
            </g>
        </g>
    </g>
</svg>