<?xml version="1.0" encoding="UTF-8"?>
<svg width="28px" height="28px" viewBox="0 0 28 28" version="1.1" xmlns="http://www.w3.org/2000/svg" xmlns:xlink="http://www.w3.org/1999/xlink">
    <title>VIP level</title>
    <defs>
        <linearGradient x1="74.8125%" y1="26.4781672%" x2="0%" y2="77.2418478%" id="linearGradient-1">
            <stop stop-color="#FF8960" offset="0%"></stop>
            <stop stop-color="#FF62A5" offset="100%"></stop>
        </linearGradient>
        <path d="M16.6523437,4 C15.9092161,4 15.3046875,4.59545693 15.3046875,5.32743296 C15.3046875,5.74002862 15.5007865,6.10463021 15.8014635,6.34822891 L13.4778646,8.28433413 L11.1842135,6.34822891 C11.4848906,6.10463021 11.6809896,5.74002862 11.6809896,5.32743296 C11.6809896,4.59545693 11.0764609,4 10.3333333,4 C9.59020573,4 8.98567708,4.59545693 8.98567708,5.32743296 C8.98567708,5.74002862 9.18177604,6.10463021 9.48245312,6.34822891 L7.18880208,8.28433413 L4.86520312,6.34822891 C5.16588021,6.10463021 5.36197917,5.74002862 5.36197917,5.32743296 C5.36197917,4.59545693 4.75745052,4 4.01432292,4 C3.27119531,4 2.66666667,4.59545693 2.66666667,5.32743296 C2.66666667,5.91946806 3.06476432,6.41628197 3.6091875,6.58687186 L4.40394531,12.8495531 L16.2627214,12.8495531 L17.0574492,6.58687186 C17.6019023,6.41628197 18,5.91946806 18,5.32743296 C18,4.59545693 17.3954714,4 16.6523437,4 Z M6.73958333,11.5221201 C6.49149479,11.5221201 6.29036458,11.3240081 6.29036458,11.0796425 C6.29036458,10.8352178 6.49149479,10.6371648 6.73958333,10.6371648 C6.98767188,10.6371648 7.18880208,10.8352178 7.18880208,11.0796425 C7.18880208,11.3240081 6.98767188,11.5221201 6.73958333,11.5221201 Z M10.3333333,11.9645978 C9.59020573,11.9645978 8.98567708,11.3691408 8.98567708,10.6371648 C8.98567708,9.90518877 9.59020573,9.30973184 10.3333333,9.30973184 C11.0764609,9.30973184 11.6809896,9.90518877 11.6809896,10.6371648 C11.6809896,11.3691408 11.0764609,11.9645978 10.3333333,11.9645978 Z M15.9328047,13.8160652 C16.3914693,13.8160652 16.7632675,14.1883004 16.7632675,14.647504 C16.7632675,15.1066523 16.3914693,15.4789429 15.9328047,15.4789429 L15.9328047,15.4789429 L5.0814242,15.4789429 C4.6227596,15.4789429 4.25096141,15.1066523 4.25096141,14.647504 C4.25096141,14.1883004 4.6227596,13.8160652 5.0814242,13.8160652 L5.0814242,13.8160652 Z M13.9270833,10.6371648 C14.1751719,10.6371648 14.3763021,10.8352178 14.3763021,11.0796425 C14.3763021,11.3240081 14.1751719,11.5221201 13.9270833,11.5221201 C13.6789948,11.5221201 13.4778646,11.3240081 13.4778646,11.0796425 C13.4778646,10.8352178 13.6789948,10.6371648 13.9270833,10.6371648 Z M10.3333333,10.47587 C10.6156122,10.47587 10.8444444,10.6825128 10.8444444,10.9374195 C10.8444444,11.1923262 10.6156122,11.398969 10.3333333,11.398969 C10.0510545,11.398969 9.82222222,11.1923262 9.82222222,10.9374195 C9.82222222,10.6825128 10.0510545,10.47587 10.3333333,10.47587 Z" id="path-2"></path>
    </defs>
    <g id="Dating_App-iPhoneX-Dark-Mode" stroke="none" stroke-width="1" fill="none" fill-rule="evenodd">
        <g id="Profile" transform="translate(-100.000000, -175.000000)">
            <g id="Account-Infor" transform="translate(18.000000, 86.000000)">
                <g id="VIP-level" transform="translate(83.000000, 90.000000)">
                    <circle id="Oval-2" stroke="#FFFFFF" stroke-width="2" fill="url(#linearGradient-1)" cx="13" cy="13" r="13"></circle>
                    <g id="Group" transform="translate(3.000000, 3.000000)">
                        <g id="icons/vip-center">
                            <rect id="Rectangle" fill-opacity="0" fill="#FF0000" fill-rule="evenodd" x="0" y="0" width="20" height="20"></rect>
                            <mask id="mask-3" fill="white">
                                <use xlink:href="#path-2"></use>
                            </mask>
                            <use id="Shape" fill="#FFFFFF" fill-rule="nonzero" xlink:href="#path-2"></use>
                            <g id="color/White" mask="url(#mask-3)" fill="#FFFFFF" fill-rule="evenodd">
                                <rect x="0" y="0" width="20" height="20"></rect>
                                <rect x="0" y="0" width="20" height="20"></rect>
                            </g>
                        </g>
                    </g>
                </g>
            </g>
        </g>
    </g>
</svg>