<?xml version="1.0" encoding="UTF-8"?>
<svg width="22px" height="22px" viewBox="0 0 22 22" version="1.1" xmlns="http://www.w3.org/2000/svg" xmlns:xlink="http://www.w3.org/1999/xlink">
    <title>Group 6</title>
    <defs>
        <path d="M13.321875,3.2 C12.7273729,3.2 12.24375,3.67636554 12.24375,4.26194637 C12.24375,4.5920229 12.4006292,4.88370417 12.6411708,5.07858313 L10.7822917,6.6274673 L8.94737083,5.07858313 C9.1879125,4.88370417 9.34479167,4.5920229 9.34479167,4.26194637 C9.34479167,3.67636554 8.86116875,3.2 8.26666667,3.2 C7.67216458,3.2 7.18854167,3.67636554 7.18854167,4.26194637 C7.18854167,4.5920229 7.34542083,4.88370417 7.5859625,5.07858313 L5.75104167,6.6274673 L3.8921625,5.07858313 C4.13270417,4.88370417 4.28958333,4.5920229 4.28958333,4.26194637 C4.28958333,3.67636554 3.80596042,3.2 3.21145833,3.2 C2.61695625,3.2 2.13333333,3.67636554 2.13333333,4.26194637 C2.13333333,4.73557445 2.45181146,5.13302558 2.88735,5.26949748 L3.52315625,10.2796425 L13.0101771,10.2796425 L13.6459594,5.26949748 C14.0815219,5.13302558 14.4,4.73557445 14.4,4.26194637 C14.4,3.67636554 13.9163771,3.2 13.321875,3.2 Z M5.39166667,9.21769609 C5.19319583,9.21769609 5.03229167,9.05920649 5.03229167,8.86371397 C5.03229167,8.66817424 5.19319583,8.50973184 5.39166667,8.50973184 C5.5901375,8.50973184 5.75104167,8.66817424 5.75104167,8.86371397 C5.75104167,9.05920649 5.5901375,9.21769609 5.39166667,9.21769609 Z M8.26666667,9.57167821 C7.67216458,9.57167821 7.18854167,9.09531267 7.18854167,8.50973184 C7.18854167,7.92415102 7.67216458,7.44778547 8.26666667,7.44778547 C8.86116875,7.44778547 9.34479167,7.92415102 9.34479167,8.50973184 C9.34479167,9.09531267 8.86116875,9.57167821 8.26666667,9.57167821 Z M12.7462437,11.0528522 C13.1131754,11.0528522 13.410614,11.3506403 13.410614,11.7180032 C13.410614,12.0853218 13.1131754,12.3831543 12.7462437,12.3831543 L12.7462437,12.3831543 L4.06513936,12.3831543 C3.69820768,12.3831543 3.40076913,12.0853218 3.40076913,11.7180032 C3.40076913,11.3506403 3.69820768,11.0528522 4.06513936,11.0528522 L4.06513936,11.0528522 Z M11.1416667,8.50973184 C11.3401375,8.50973184 11.5010417,8.66817424 11.5010417,8.86371397 C11.5010417,9.05920649 11.3401375,9.21769609 11.1416667,9.21769609 C10.9431958,9.21769609 10.7822917,9.05920649 10.7822917,8.86371397 C10.7822917,8.66817424 10.9431958,8.50973184 11.1416667,8.50973184 Z M8.26666667,8.38069601 C8.49248976,8.38069601 8.67555556,8.5460102 8.67555556,8.7499356 C8.67555556,8.95386099 8.49248976,9.11917518 8.26666667,9.11917518 C8.04084357,9.11917518 7.85777778,8.95386099 7.85777778,8.7499356 C7.85777778,8.5460102 8.04084357,8.38069601 8.26666667,8.38069601 Z" id="path-1"></path>
    </defs>
    <g id="Dating_App-iPhoneX-Dark-Mode" stroke="none" stroke-width="1" fill="none" fill-rule="evenodd">
        <g id="Profile" transform="translate(-33.000000, -545.000000)">
            <g id="Panel-#2" transform="translate(17.000000, 480.000000)">
                <g id="Level" transform="translate(1.000000, 65.000000)">
                    <g id="Group-6" transform="translate(15.000000, 0.000000)">
                        <rect id="Rectangle-2" fill="#4A90E2" x="0" y="0" width="22" height="22" rx="8"></rect>
                        <g id="icons/vip-center" transform="translate(3.000000, 3.000000)">
                            <rect id="Rectangle" fill-opacity="0" fill="#FF0000" fill-rule="evenodd" x="0" y="0" width="16" height="16"></rect>
                            <mask id="mask-2" fill="white">
                                <use xlink:href="#path-1"></use>
                            </mask>
                            <use id="Shape" fill="#FFFFFF" fill-rule="nonzero" xlink:href="#path-1"></use>
                            <g id="color/White" mask="url(#mask-2)" fill="#FFFFFF" fill-rule="evenodd">
                                <rect x="0" y="0" width="16" height="16"></rect>
                                <rect x="0" y="0" width="16" height="16"></rect>
                            </g>
                        </g>
                    </g>
                </g>
            </g>
        </g>
    </g>
</svg>